<svg data-v-d5cf5f7c="" width="25" height="24" viewBox="0 0 25 24" fill="none" xmlns="http://www.w3.org/2000/svg"><path data-v-d5cf5f7c="" fill-rule="evenodd" clip-rule="evenodd" d="M13.3439 0.364757L23.5276 0.000481047C23.9746 -0.016077 24.3759 0.397386 24.3491 0.843965L23.7043 11.0145C23.7097 11.4513 23.5388 11.8692 23.23 12.1687L11.5323 23.5513C10.9074 24.1606 9.89983 24.1484 9.29011 23.5206L0.448622 14.4332C-0.16159 13.8055 -0.147466 12.7979 0.47979 12.1881L12.1766 0.806953C12.4843 0.508422 12.9066 0.348199 13.3439 0.364757ZM16.9531 7.22123C17.9821 8.279 19.6812 8.30334 20.74 7.27334C21.7987 6.24334 21.8221 4.54322 20.7926 3.48545C19.7616 2.42672 18.0629 2.40431 17.0037 3.43383C15.9455 4.46286 15.9221 6.16249 16.9531 7.22123ZM18.0927 6.11477C17.6704 5.6828 17.6797 4.99078 18.1107 4.57098C18.5431 4.15119 19.2347 4.16093 19.6545 4.59192C20.0753 5.02243 20.0655 5.71495 19.6331 6.13523C19.2021 6.55551 18.5091 6.54577 18.0927 6.11477Z" fill="#122C53"></path></svg>