<svg data-v-d5cf5f7c="" width="18" height="24" viewBox="0 0 18 24" fill="none" xmlns="http://www.w3.org/2000/svg"><path data-v-d5cf5f7c="" fill-rule="evenodd" clip-rule="evenodd" d="M17.4638 6.4002H11.5519C11.4585 6.4002 11.369 6.36311 11.303 6.2971C11.237 6.23109 11.1999 6.14156 11.1999 6.0482V0.136266C11.201 0.118101 11.1983 0.0998952 11.1919 0.0828622C11.1855 0.0658291 11.1755 0.0503609 11.1627 0.0374899C11.1498 0.0246189 11.1343 0.0146411 11.1173 0.00822235C11.1002 0.00180362 11.082 -0.00090838 11.0639 0.000267273H0.799991C0.58782 0.000267273 0.38434 0.0845518 0.234312 0.234579C0.0842847 0.384607 0 0.588088 0 0.800258V23.2C0 23.4122 0.0842847 23.6157 0.234312 23.7657C0.38434 23.9157 0.58782 24 0.799991 24H16.7998C17.012 24 17.2155 23.9157 17.3655 23.7657C17.5155 23.6157 17.5998 23.4122 17.5998 23.2V6.53619C17.601 6.51803 17.5983 6.49982 17.5918 6.48279C17.5854 6.46576 17.5754 6.45029 17.5626 6.43742C17.5497 6.42455 17.5342 6.41457 17.5172 6.40815C17.5002 6.40173 17.482 6.39902 17.4638 6.4002ZM14.1838 16.9041C14.1089 16.9894 14.0166 17.0578 13.9131 17.1047C13.8097 17.1516 13.6974 17.1759 13.5838 17.1761C13.3894 17.1758 13.2017 17.1047 13.0559 16.9761L9.59989 13.9601C8.91001 14.4841 8.06624 14.7654 7.19992 14.7601C6.44083 14.7498 5.70034 14.5237 5.06497 14.1082C4.42961 13.6927 3.9256 13.105 3.61183 12.4137C3.29807 11.7224 3.18751 10.9561 3.29307 10.2043C3.39863 9.45255 3.71595 8.74632 4.20795 8.16818C4.87031 7.45179 5.77166 7.00219 6.74237 6.904C7.71309 6.80581 8.68622 7.0658 9.47862 7.63503C10.271 8.20426 10.828 9.04348 11.0449 9.99475C11.2617 10.946 11.1233 11.9437 10.6559 12.8001L14.1118 15.8161C14.2592 15.9547 14.3485 16.144 14.3619 16.3459C14.3753 16.5478 14.3116 16.7472 14.1838 16.9041ZM5.39993 9.24016C5.08444 9.5969 4.88221 10.0394 4.81898 10.5115C4.75575 10.9835 4.83438 11.4636 5.04487 11.8908C5.25536 12.318 5.58818 12.6729 6.00099 12.9104C6.41379 13.1479 6.88792 13.2572 7.36302 13.2244C7.83813 13.1916 8.29273 13.0181 8.66898 12.7262C9.04524 12.4342 9.32612 12.037 9.4759 11.5849C9.62567 11.1328 9.63757 10.6464 9.51007 10.1875C9.38256 9.7287 9.12143 9.31815 8.7599 9.00816C8.28153 8.59799 7.66103 8.39241 7.03239 8.43582C6.40374 8.47923 5.81739 8.76813 5.39993 9.24016ZM12.6798 4.80025H17.2158C17.2316 4.80294 17.2479 4.80025 17.262 4.79261C17.2762 4.78498 17.2873 4.77284 17.2938 4.75812C17.3002 4.74341 17.3015 4.72696 17.2976 4.7114C17.2936 4.69585 17.2845 4.68207 17.2718 4.67226L12.7278 0.128307C12.718 0.115589 12.7042 0.106516 12.6887 0.102531C12.6731 0.0985469 12.6567 0.0998796 12.642 0.106317C12.6272 0.112755 12.6151 0.123929 12.6075 0.13806C12.5998 0.152192 12.5971 0.16847 12.5998 0.184306V4.72025C12.5985 4.73107 12.5997 4.74204 12.6033 4.75233C12.6069 4.76262 12.6127 4.77197 12.6204 4.77967C12.6281 4.78737 12.6375 4.79323 12.6478 4.79679C12.658 4.80036 12.669 4.80154 12.6798 4.80025Z" fill="#122C53"></path></svg>