<svg data-v-d5cf5f7c="" width="24" height="24" viewBox="0 0 24 24" fill="none" xmlns="http://www.w3.org/2000/svg"><path data-v-d5cf5f7c="" fill-rule="evenodd" clip-rule="evenodd" d="M0 13.0624C0 5.84228 5.84326 0 13.0624 0C13.4511 0 13.7662 0.315094 13.7662 0.703783V13.0624C13.7662 13.4511 13.4511 13.7662 13.0624 13.7662H0.703783C0.315094 13.7662 0 13.4511 0 13.0624ZM7.43809 15.4353C7.69515 15.4353 7.93183 15.5755 8.05529 15.8009C8.94405 17.4235 10.5524 18.5005 12.3587 18.7247V24C7.75342 23.7108 3.93001 20.5719 2.60442 16.3499C2.53735 16.1361 2.57597 15.9033 2.70858 15.7226C2.84114 15.542 3.05185 15.4353 3.27586 15.4353H7.43809ZM16.3499 2.60447C16.1362 2.53744 15.9032 2.57611 15.7226 2.70863C15.542 2.84124 15.4353 3.05189 15.4353 3.27596V7.43814C15.4353 7.69515 15.5755 7.93178 15.8009 8.05529C17.4234 8.94414 18.5005 10.5524 18.7246 12.3587H24C23.7101 7.74343 20.5619 3.92696 16.3499 2.60447ZM13.7662 18.7255C16.3513 18.4062 18.4063 16.3512 18.7255 13.7662H23.9995C23.6534 19.2652 19.2578 23.6538 13.7662 23.9995V18.7255Z" fill="#122C53"></path></svg>