<svg data-v-d5cf5f7c="" width="24" height="24" viewBox="0 0 24 24" fill="none" xmlns="http://www.w3.org/2000/svg"><path data-v-d5cf5f7c="" fill-rule="evenodd" clip-rule="evenodd" d="M12.6015 3.60902C16.7639 3.90496 20.095 7.23489 20.391 11.3985H24C23.6944 5.24632 18.7561 0.306767 12.6015 0V3.60902ZM19.188 11.3985H17.4135C17.0827 11.3985 16.812 11.6692 16.812 12C16.812 12.3308 17.0827 12.6015 17.4135 12.6015H19.188C18.8956 16.1047 16.1026 18.8981 12.6015 19.188V17.4135C12.6015 17.0827 12.332 16.812 12 16.812C11.668 16.812 11.3985 17.0827 11.3985 17.4135V19.188C7.89775 18.8956 5.10316 16.1026 4.81204 12.6015H6.58647C6.9185 12.6015 7.18798 12.3308 7.18798 12C7.18798 11.6692 6.9185 11.3985 6.58647 11.3985H4.81204C5.10316 7.89655 7.89775 5.10316 11.3985 4.81204V6.58647C11.3985 6.9173 11.668 7.18798 12 7.18798C12.332 7.18798 12.6015 6.9173 12.6015 6.58647V4.81204C16.1026 5.10437 18.8956 7.89775 19.188 11.3985ZM10.1955 12C10.1955 12.9952 11.0051 13.8045 12 13.8045C12.9952 13.8045 13.8045 12.9952 13.8045 12C13.8045 11.0051 12.9952 10.1955 12 10.1955C11.0051 10.1955 10.1955 11.0051 10.1955 12ZM12 12.6015C12.3323 12.6015 12.6015 12.3323 12.6015 12C12.6015 11.6677 12.3323 11.3985 12 11.3985C11.6677 11.3985 11.3985 11.6677 11.3985 12C11.3985 12.3323 11.6677 12.6015 12 12.6015ZM3.60902 12.6015C3.90496 16.7651 7.23609 20.095 11.3985 20.391V24C5.24511 23.6932 0.306767 18.7537 0 12.6015H3.60902ZM3.60902 11.3985C3.90496 7.23489 7.23489 3.90496 11.3985 3.60902V0C5.24632 0.305564 0.306767 5.24511 0 11.3985H3.60902ZM12.6015 20.391C16.7651 20.095 20.095 16.7651 20.391 12.6015H24C23.6944 18.7561 18.7525 23.6944 12.6015 24V20.391Z" fill="#122C53"></path></svg>